OpenSim_Sub04_CSStiffKnee_LCS.mot
version=1
nRows=25
nColumns=11
inDegrees=no
endheader
time	Bot_Shank	2nd_Bot_Shank	2nd_Top_Shank	Top_Shank	Bot_Thigh	Med_Thigh	Top_Thigh	BNOx	BNOy	BNOZ
37.06000000	10087.59157424	10400.24858156	10820.83609271	10826.80491761	13062.26448478	14114.61579190	14811.29590785	195.71839945	-77.60367845	115.97707583
37.07000000	10084.58884754	10400.41819458	10820.68882069	10826.15272841	13050.94632988	14113.41552833	14808.46317706	195.06443071	-77.73140519	75.23391750
37.08000000	10081.09893834	10400.55192782	10820.46783801	10825.52049214	13038.06318345	14112.03005708	14805.34932170	194.39583711	-77.86522740	30.69536502
37.09000000	10077.32609527	10400.60664235	10820.14392341	10824.89387605	13024.29114252	14110.54105570	14802.11910742	193.70787821	-78.01239896	-15.41988689
37.10000000	10073.47456699	10400.53919926	10819.68785562	10824.25854744	13010.30630410	14109.03020175	14798.93729991	192.99581360	-78.18017376	-60.89314349
37.11000000	10069.74860213	10400.30645962	10819.07041338	10823.60017356	12996.78476520	14107.57917278	14795.96866485	192.25490285	-78.37580566	-103.50571006
37.12000000	10066.35244934	10399.86528452	10818.26237543	10822.90442169	12984.40262283	14106.26964636	14793.37796792	191.48040555	-78.60654856	-141.03889188
37.13000000	10063.49035725	10399.17253505	10817.23452050	10822.15695909	12973.83597400	14105.18330003	14791.32997479	190.66758125	-78.87965632	-171.27399421
37.14000000	10061.34084801	10398.19238573	10815.96305108	10821.34639714	12965.68779887	14104.39217381	14789.97423820	189.81183988	-79.19962304	-192.29117182
37.15000000	10059.89230883	10396.94306210	10814.46425472	10820.48310595	12960.02069829	14103.89708022	14789.34787774	188.90970234	-79.55054618	-204.37926405
37.16000000	10059.04790788	10395.46701553	10812.77238517	10819.58720798	12956.65507348	14103.66690743	14789.43762014	187.95818751	-79.90738139	-208.81704919
37.17000000	10058.71041136	10393.80681163	10810.92178093	10818.67887167	12955.41018326	14103.67039300	14790.22995442	186.95431660	-80.24504118	-206.88797503
37.18000000	10058.78258546	10392.00501605	10808.94678051	10817.77826549	12956.10528640	14103.87627451	14791.71136961	185.89511084	-80.53843809	-199.87548940
37.19000000	10059.16719640	10390.10419440	10806.88172242	10816.90555788	12958.55964171	14104.25328952	14793.86835471	184.77759144	-80.76248464	-189.06304011
37.20000000	10059.76701035	10388.14691232	10804.76094516	10816.08091730	12962.59250796	14104.77017562	14796.68739877	183.59877963	-80.89209335	-175.73407495
37.21000000	10060.48479353	10386.17573544	10802.61878723	10815.32451220	12968.02314397	14105.39567036	14800.15499079	182.35569663	-80.90217674	-161.17204175
37.22000000	10061.22331213	10384.23322938	10800.48958714	10814.65651103	12974.67080851	14106.09851133	14804.25761981	181.04536366	-80.76764734	-146.66038832
37.23000000	10061.88533234	10382.36195977	10798.40768340	10814.09708225	12982.35476037	14106.84743609	14808.98177484	179.66480193	-80.46341766	-133.48256246
37.24000000	10062.38466203	10380.60532870	10796.41189057	10813.70020262	12990.90098614	14107.61546465	14814.30451385	178.21333952	-79.96905003	-122.77386600
37.25000000	10062.71671383	10379.01292018	10794.57410414	10813.76971354	13000.18519482	14108.40726698	14820.13319346	176.70735362	-79.29847149	-114.57470938
37.26000000	10062.91347590	10377.63708898	10792.98104656	10814.72144644	13010.10538121	14109.24169863	14826.34392991	175.17086286	-78.48101152	-108.43476948
37.27000000	10063.00710889	10376.53020294	10791.71951021	10816.97176103	13020.55964520	14110.13768205	14832.81269208	173.62792191	-77.54607223	-103.90140838
37.28000000	10063.02977348	10375.74462988	10790.87628749	10820.93701701	13031.44608670	14111.11413971	14839.41544887	172.10258547	-76.52305574	-100.52198818
37.29000000	10063.01363034	10375.33273766	10790.53817076	10827.03357407	13042.66280561	14112.18999408	14846.02816916	170.61890820	-75.44136416	-97.84387096
37.30000000	10062.99084014	10375.34689411	10790.79195244	10835.67779191	13054.10790183	14113.38416762	14852.52682184	169.20094480	-74.33039961	-95.41441883
